<svg xmlns="http://www.w3.org/2000/svg" viewBox="0 0 651.29 286.25"><defs><style>.cls-1{fill:#00a7e1;}.cls-2{fill:#fff;}</style></defs><g id="Layer_2" data-name="Layer 2"><g id="Logos"><rect class="cls-1" width="651.29" height="286.25" rx="143.12"/><path class="cls-2" d="M131.76,164.1,88.28,92.66h41.59L150.45,129h1.3l20.73-36.37H213.2L169.72,164.1v30h-38Z"/><path class="cls-2" d="M202.19,143.38c0-33.91,23.18-54.49,60-54.49s60,20.58,60,54.49-23.19,54.48-60,54.48S202.19,177.29,202.19,143.38Zm83,0c0-14.93-8.7-23.48-23-23.48s-22.9,8.55-22.9,23.48,8.55,23.47,22.9,23.47S285.22,158.3,285.22,143.38Z"/><path class="cls-2" d="M328.26,143.67c0-33.91,24.2-53.91,60-53.91,17.54,0,29.85,4.2,39.56,9.71v34.2h-.29c-11.88-8-22.17-12.61-34.92-12.61-15.36,0-26.37,8-26.37,22.32,0,14.78,11.3,22.17,26.22,22.17,13.19,0,23.77-4.49,35.07-12.75h.29v34.63c-8,4.64-22,9.56-39.85,9.56C351,197,328.26,177.58,328.26,143.67Z"/><path class="cls-2" d="M434.19,143.38c0-33.91,23.18-54.49,60-54.49s60,20.58,60,54.49-23.18,54.48-60,54.48S434.19,177.29,434.19,143.38Zm83,0c0-14.93-8.69-23.48-23-23.48s-22.89,8.55-22.89,23.48,8.55,23.47,22.89,23.47S517.22,158.3,517.22,143.38Z"/></g></g></svg>